# xmcd
#
# Track frame offsets: 
#        150
#        11135
#        26882
#        37225
#        49604
#        61888
#        76446
#        88498
#        103384
#        115379
#        125783
#        136245
#        149842
#        164495
#        177423
#        189790
#
# Disc length: 2704 seconds
#
# Revision: 6
# Processed by: cddbd v1.5.2PL0 Copyright (c) Steve Scherf et al.
# Submitted via: ExactAudioCopyFreeDBPlugin 1.0
#
DISCID=f70a8e10
DTITLE=Aretha Franklin - A Little Prayer
DYEAR=1989
DGENRE=Soul
TTITLE0=Respect
TTITLE1=I Say A Little Prayer
TTITLE2=Think
TTITLE3=Chain Of Fools
TTITLE4=See Saw
TTITLE5=Do Right Woman, Do Right Man
TTITLE6=I Never Loved A Man (The Way I Love You)
TTITLE7=Dr. Feelgood
TTITLE8=(You Make Me Feel Like) A Natural Woman
TTITLE9=Save Me
TTITLE10=The House That Jack Built
TTITLE11=My Guy
TTITLE12=Try A Little Tenderness
TTITLE13=It Ain't Necessarily So
TTITLE14=I'm Sitting on Top Of The World
TTITLE15=I Apologise
EXTD=YEAR: 1989
EXTT0=
EXTT1=
EXTT2=
EXTT3=
EXTT4=
EXTT5=
EXTT6=
EXTT7=
EXTT8=
EXTT9=
EXTT10=
EXTT11=
EXTT12=
EXTT13=
EXTT14=
EXTT15=
PLAYORDER=
